<svg viewBox="0 0 210 225" xmlns="http://www.w3.org/2000/svg">
  <!-- Two paws gripping the left edge -->
  <ellipse cx="56" cy="148" rx="11" ry="5.5" fill="#6c7086" stroke="#45475a" stroke-width="1.5" transform="rotate(-80, 56, 148)"/>
  <circle cx="52" cy="143" r="2.5" fill="#f5c2e7" opacity="0.8"/>
  <circle cx="54" cy="148" r="2" fill="#f5c2e7" opacity="0.8"/>
  <circle cx="52" cy="153" r="2.5" fill="#f5c2e7" opacity="0.8"/>

  <ellipse cx="56" cy="182" rx="11" ry="5.5" fill="#6c7086" stroke="#45475a" stroke-width="1.5" transform="rotate(-80, 56, 182)"/>
  <circle cx="52" cy="177" r="2.5" fill="#f5c2e7" opacity="0.8"/>
  <circle cx="54" cy="182" r="2" fill="#f5c2e7" opacity="0.8"/>
  <circle cx="52" cy="187" r="2.5" fill="#f5c2e7" opacity="0.8"/>

  <!-- Body half (only right half visible, as if behind a wall) -->
  <path d="M 60,198 C 73,202 132,202 145,198 C 153,192 155,182 155,170 C 155,160 156,148 158,132 C 162,115 164,100 156,80 Q 176,38 162,18 Q 146,34 130,58 C 120,50 90,50 80,58 Q 64,34 48,18 Q 34,38 54,80 C 46,100 48,115 52,132 C 56,148 55,160 55,170 C 55,182 57,192 60,198 Z" fill="#7f849c" stroke="#45475a" stroke-width="2.5" stroke-linejoin="round"/>

  <!-- Ear inners -->
  <path d="M 58,76 Q 44,44 52,26 Q 62,40 74,62 Z" fill="white"/>
  <path d="M 152,76 Q 166,44 158,26 Q 148,40 136,62 Z" fill="white"/>

  <!-- Face -->
  <ellipse cx="105" cy="120" rx="24" ry="15" fill="#cdd6f4"/>
  <path d="M 105,83.05 C 101.7,75.35 94,75.35 94,78.65 C 94,83.05 105,88 105,88 C 105,88 116,83.05 116,78.65 C 116,75.35 108.3,75.35 105,83.05Z" fill="#cdd6f4"/>
  <!-- Wide curious eyes -->
  <ellipse cx="82" cy="97" rx="17" ry="19" fill="white" stroke="#45475a" stroke-width="2.5"/>
  <ellipse cx="82" cy="99" rx="14" ry="16" fill="#fab387"/>
  <ellipse cx="82" cy="95" rx="13" ry="6" fill="#e8956a" opacity="0.4"/>
  <ellipse cx="82" cy="100" rx="7" ry="9" fill="#1e1e2e"/>
  <circle cx="89" cy="90" r="4.8" fill="white"/>
  <circle cx="77" cy="103" r="2.9" fill="white" opacity="0.8"/>
  <ellipse cx="128" cy="97" rx="17" ry="19" fill="white" stroke="#45475a" stroke-width="2.5"/>
  <ellipse cx="128" cy="99" rx="14" ry="16" fill="#89b4fa"/>
  <ellipse cx="128" cy="95" rx="13" ry="6" fill="#5e8ad4" opacity="0.4"/>
  <ellipse cx="128" cy="100" rx="7" ry="9" fill="#1e1e2e"/>
  <circle cx="135" cy="90" r="4.8" fill="white"/>
  <circle cx="123" cy="103" r="2.9" fill="white" opacity="0.8"/>
  <path d="M 105,122 C 102,122 100,124 102,126 C 103,127 105,128 105,128 C 105,128 107,127 108,126 C 110,124 108,122 105,122Z" fill="#f38ba8" stroke="#d4637a" stroke-width="0.7"/>
  <path d="M 105,128 L 105,130" stroke="#45475a" stroke-width="1.2" stroke-linecap="round"/>
  <path d="M 101,129.5 C 103,132 104,130 105,130" stroke="#45475a" stroke-width="1.2" fill="none" stroke-linecap="round"/>
  <path d="M 105,130 C 106,130 107,132 109,129.5" stroke="#45475a" stroke-width="1.2" fill="none" stroke-linecap="round"/>
  <g stroke="#6c7086" stroke-width="1" fill="none" opacity="0.6">
    <path d="M 83,123 Q 57,118 30,116"/>
    <path d="M 81,127 Q 53,127 25,127"/>
    <path d="M 83,131 Q 57,136 33,141"/>
    <path d="M 127,123 Q 153,118 180,116"/>
    <path d="M 129,127 Q 157,127 185,127"/>
    <path d="M 127,131 Q 153,136 177,141"/>
  </g>
</svg>