<svg viewBox="0 0 210 225" xmlns="http://www.w3.org/2000/svg">
  <g transform="translate(5, 86)">
  <!-- Tail up -->
  <path d="M 36,68 C 26,58 14,44 8,30 C 2,16 6,8 12,4 C 18,0 24,4 22,12
           C 20,20 18,30 22,42 C 26,54 32,64 38,70" fill="#7f849c" stroke="#45475a" stroke-width="2"/>
  <path d="M 12,4 C 18,0 24,4 22,12 C 20,6 16,2 12,4Z" fill="#cdd6f4"/>

  <!-- Back legs lifted -->
  <path d="M 40,88 C 34,92 28,100 26,108 C 24,114 28,118 34,116
           C 40,114 42,108 40,102 C 38,96 40,92 42,88" fill="#7f849c"/>
  <ellipse cx="32" cy="114" rx="8" ry="4" fill="#6c7086" stroke="#45475a" stroke-width="1.4"/>
  <circle cx="28" cy="115" r="2" fill="#f5c2e7" opacity="0.8"/>
  <circle cx="32" cy="116" r="1.6" fill="#f5c2e7" opacity="0.8"/>
  <circle cx="36" cy="115" r="2" fill="#f5c2e7" opacity="0.8"/>

  <path d="M 52,90 C 48,94 42,102 40,110 C 38,116 42,120 48,118
           C 54,116 56,110 54,104 C 52,98 52,94 54,90" fill="#7f849c"/>
  <ellipse cx="46" cy="116" rx="8" ry="4" fill="#6c7086" stroke="#45475a" stroke-width="1.4"/>
  <circle cx="42" cy="117" r="2" fill="#f5c2e7" opacity="0.8"/>
  <circle cx="46" cy="118" r="1.6" fill="#f5c2e7" opacity="0.8"/>
  <circle cx="50" cy="117" r="2" fill="#f5c2e7" opacity="0.8"/>

  <!-- Body -->
  <ellipse cx="72" cy="80" rx="40" ry="22" fill="#7f849c" stroke="#45475a" stroke-width="2.2"/>
  <ellipse cx="72" cy="84" rx="28" ry="12" fill="#bac2de"/>

  <!-- Front legs planted -->
  <path d="M 88,90 C 88,100 88,112 88,122 C 88,128 92,132 98,130
           C 104,128 104,122 102,116 C 100,108 96,100 94,92" fill="#7f849c"/>
  <ellipse cx="96" cy="130" rx="9" ry="4.5" fill="#6c7086" stroke="#45475a" stroke-width="1.4"/>
  <circle cx="92" cy="131" r="2" fill="#f5c2e7" opacity="0.8"/>
  <circle cx="96" cy="132" r="1.8" fill="#f5c2e7" opacity="0.8"/>
  <circle cx="100" cy="131" r="2" fill="#f5c2e7" opacity="0.8"/>

  <path d="M 100,88 C 100,98 100,110 100,120 C 100,126 104,130 110,128
           C 116,126 116,120 114,114 C 112,106 108,98 106,90" fill="#7f849c"/>
  <ellipse cx="108" cy="128" rx="9" ry="4.5" fill="#6c7086" stroke="#45475a" stroke-width="1.4"/>
  <circle cx="104" cy="129" r="2" fill="#f5c2e7" opacity="0.8"/>
  <circle cx="108" cy="130" r="1.8" fill="#f5c2e7" opacity="0.8"/>
  <circle cx="112" cy="129" r="2" fill="#f5c2e7" opacity="0.8"/>

  <!-- Neck -->
  <path d="M 98,72 C 104,64 112,58 120,54 C 126,52 128,56 124,62
           C 120,68 114,74 106,78 C 100,80 96,78 98,72Z" fill="#7f849c"/>
  <path d="M 102,66 C 106,60 114,56 120,54 C 118,60 112,68 106,72Z" fill="#cdd6f4" opacity="0.6"/>

  <!-- Far ear -->
  <path d="M 130,22 Q 126,6 132,-2 Q 138,8 138,20 Z" fill="#6c7086" stroke="#45475a" stroke-width="1.5"/>
  <!-- Near ear -->
  <path d="M 150,24 Q 162,0 154,-4 Q 144,6 142,22 Z" fill="#7f849c" stroke="#45475a" stroke-width="2"/>
  <path d="M 148,20 Q 156,4 152,0 Q 146,8 144,18 Z" fill="white"/>

  <!-- Head -->
  <ellipse cx="146" cy="42" rx="36" ry="34" fill="#7f849c" stroke="#45475a" stroke-width="2.5"/>
  <ellipse cx="166" cy="54" rx="14" ry="10" fill="#cdd6f4"/>
  <path d="M 146,24 C 144,20 139,20 139,24 C 139,28 146,32 146,32
           C 146,32 153,28 153,24 C 153,20 148,20 146,24Z" fill="#cdd6f4"/>

  <ellipse cx="158" cy="42" rx="12" ry="14" fill="white" stroke="#45475a" stroke-width="2"/>
  <ellipse cx="159" cy="44" rx="10" ry="12" fill="#89b4fa"/>
  <ellipse cx="159" cy="41" rx="8" ry="5" fill="#5e8ad4" opacity="0.4"/>
  <ellipse cx="160" cy="46" rx="5" ry="7" fill="#1e1e2e"/>
  <circle cx="164" cy="38" r="3.5" fill="white"/>
  <circle cx="156" cy="50" r="2" fill="white" opacity="0.8"/>

  <path d="M 174,52 C 172,52 171,54 172,55 C 173,56 174,56 174,56
           C 174,56 175,56 176,55 C 177,54 176,52 174,52Z" fill="#f38ba8" stroke="#d4637a" stroke-width="0.5"/>
  <path d="M 174,56 L 174,57.5" stroke="#45475a" stroke-width="0.8" stroke-linecap="round"/>
  <path d="M 172,57 C 172.5,58.5 173.5,57.5 174,57.5" stroke="#45475a" stroke-width="0.8" fill="none" stroke-linecap="round"/>
  <path d="M 174,57.5 C 174.5,57.5 175.5,58.5 176,57" stroke="#45475a" stroke-width="0.8" fill="none" stroke-linecap="round"/>

  <g stroke="#6c7086" stroke-width="0.7" fill="none" opacity="0.5">
    <path d="M 178,54 Q 188,51 196,50"/>
    <path d="M 178,56 Q 190,56 198,56"/>
    <path d="M 178,58 Q 188,61 196,64"/>
  </g>
  </g>
</svg>